<?xml version="1.0" encoding="UTF-8"?>
<svg id="Ebene_1" data-name="Ebene 1" xmlns="http://www.w3.org/2000/svg" viewBox="0 0 283.46 198.43">
  <defs>
    <style>
      .cls-1 {
        fill: none;
        stroke: #1d1d1b;
        stroke-miterlimit: 10;
      }

      .cls-2 {
        fill: #1d1d1b;
      }

      .cls-3 {
        fill: #4e4998;
      }
    </style>
  </defs>
  <rect class="cls-1" x="7.09" y="7.09" width="269.29" height="184.25"/>
  <g>
    <path class="cls-2" d="M21.02,30.12v15.33h-5.29c-.27,0-.48-.05-.62-.15-.15-.1-.22-.25-.22-.43,0-.31,.15-.51,.45-.61,.25-.08,.39-.13,.43-.15,.04-.02,.08-.06,.13-.13,.09-.12,.13-.31,.13-.57v-11.24c0-.26-.04-.45-.13-.57-.04-.07-.09-.11-.13-.13-.04-.02-.19-.07-.43-.15-.3-.1-.45-.3-.45-.61,0-.19,.07-.33,.22-.43,.15-.1,.35-.15,.62-.15h5.29Zm.94,8.18v-1.3c.43-.21,.76-.44,.97-.69s.36-.58,.46-.99c.06-.28,.14-.48,.24-.59,.1-.11,.24-.16,.42-.16,.24,0,.4,.09,.49,.28,.05,.1,.08,.32,.08,.66v4.28c0,.35-.04,.6-.12,.73-.08,.13-.22,.2-.43,.2-.17,0-.31-.05-.4-.16s-.18-.28-.24-.53c-.13-.52-.31-.91-.54-1.19-.24-.28-.54-.46-.92-.55Zm.06-8.18h4.53v3.98c0,.23-.04,.4-.13,.51s-.23,.16-.43,.16c-.16,0-.28-.03-.36-.1s-.15-.21-.21-.42c-.28-.87-.7-1.53-1.25-1.99-.55-.46-1.26-.73-2.14-.82v-1.31Zm.01,15.33v-1.21c.49-.07,.89-.18,1.21-.31,.32-.13,.64-.34,.96-.62s.58-.56,.77-.86c.19-.3,.37-.69,.54-1.17,.08-.24,.17-.4,.26-.49,.09-.09,.21-.13,.37-.13,.21,0,.36,.06,.44,.19,.08,.12,.12,.34,.12,.65v3.96h-4.67Z"/>
    <path class="cls-2" d="M33.57,29.82v1.29c-.46,.13-.82,.32-1.06,.59-.24,.27-.37,.59-.37,.98s.1,.7,.3,.98c.2,.28,.53,.55,.99,.8,.31,.17,1.03,.5,2.13,.99,.67,.29,1.2,.56,1.57,.79,.37,.24,.72,.53,1.05,.88,.88,.93,1.33,2.03,1.33,3.31,0,.97-.24,1.85-.72,2.65s-1.14,1.43-1.98,1.89c-.45,.24-.94,.43-1.48,.57-.54,.14-1.04,.21-1.5,.21v-1.28c.65-.16,1.12-.38,1.41-.66,.29-.28,.43-.66,.43-1.14s-.22-.94-.67-1.33c-.3-.25-.87-.55-1.71-.92-.92-.4-1.55-.69-1.89-.86-.34-.17-.67-.37-.98-.61-1.41-1-2.11-2.34-2.11-4.01,0-.85,.18-1.64,.53-2.36,.35-.72,.84-1.3,1.47-1.75,.88-.61,1.96-.95,3.26-1.02Zm-.58,14.66v1.28c-.61,0-1.29-.18-2.03-.53-.28-.13-.47-.21-.57-.25s-.21-.06-.3-.06c-.15,0-.26,.02-.34,.07-.07,.05-.19,.17-.36,.37-.13,.16-.28,.25-.44,.25-.42,0-.63-.32-.63-.97v-4.09c0-.21,.06-.39,.18-.53,.12-.15,.27-.22,.45-.23,.16,0,.29,.04,.39,.14,.09,.1,.17,.28,.24,.53,.17,.64,.42,1.25,.75,1.81,.33,.56,.71,1.04,1.14,1.43,.44,.4,.95,.66,1.53,.77Zm1.47-13.36v-1.24c.45,.03,.84,.09,1.17,.17,.33,.09,.8,.26,1.4,.51,.15,.06,.27,.09,.37,.09,.14,0,.25-.05,.31-.15l.25-.33c.12-.16,.27-.25,.44-.25,.2,0,.35,.07,.44,.22,.09,.15,.14,.38,.14,.69v3.71c0,.22-.06,.4-.19,.53-.12,.14-.28,.21-.48,.21-.15,0-.29-.05-.42-.15-.07-.06-.12-.13-.16-.22-.04-.09-.08-.23-.12-.43-.08-.37-.22-.75-.43-1.13s-.44-.74-.71-1.04c-.54-.61-1.22-1.01-2.03-1.2Z"/>
    <path class="cls-2" d="M52.87,29.82v1.25c-.66,.16-.99,.68-.99,1.57v10.46c0,.4,.06,.71,.17,.93,.1,.18,.3,.33,.62,.46v1.27c-.24,0-.46-.02-.66-.06-.2-.04-.46-.11-.79-.22-.79-.27-1.5-.68-2.13-1.24s-1.16-1.22-1.57-1.99c-.64-1.21-.95-2.63-.95-4.28s.28-3.01,.85-4.25,1.39-2.21,2.45-2.91c.61-.41,1.27-.71,1.98-.89,.29-.07,.64-.11,1.03-.11Zm6,13.76c-.3,.3-.7,.6-1.2,.92-.5,.31-.97,.56-1.41,.74-.4,.16-.85,.28-1.34,.38-.49,.1-.92,.15-1.3,.15v-1.27c.22-.05,.38-.12,.49-.19,.11-.07,.2-.18,.28-.31,.13-.23,.19-.53,.19-.89v-3.28c0-.29-.06-.5-.17-.63-.05-.07-.1-.12-.16-.14-.05-.02-.22-.06-.52-.13-.36-.09-.54-.3-.54-.63,0-.19,.08-.34,.25-.45,.17-.1,.42-.16,.75-.16h4.48c.34,0,.57,.05,.71,.14,.14,.09,.21,.26,.21,.49,0,.14-.03,.26-.08,.35-.06,.09-.16,.19-.31,.3s-.24,.2-.28,.29-.06,.25-.06,.49v3.83Zm-5.08-12.53v-1.21c1.22,.11,2.22,.34,3.01,.67,.23,.1,.41,.16,.54,.16,.12,0,.21-.03,.27-.08,.06-.06,.19-.21,.39-.48,.13-.19,.3-.28,.51-.28s.36,.06,.44,.17c.09,.12,.13,.31,.13,.58v4.37c0,.57-.21,.85-.63,.85-.21,0-.37-.06-.47-.17-.1-.11-.2-.33-.29-.66-.11-.42-.31-.91-.61-1.47-.29-.56-.57-1-.84-1.32-.31-.37-.65-.65-1.03-.83-.38-.18-.86-.28-1.43-.31Z"/>
    <path class="cls-2" d="M67.43,45.45h-5.3c-.27,0-.48-.05-.62-.15-.15-.1-.22-.25-.22-.43,0-.31,.15-.51,.45-.61,.25-.08,.39-.13,.43-.15,.04-.02,.08-.06,.13-.13,.09-.12,.13-.31,.13-.57v-11.24c0-.26-.04-.45-.13-.57-.04-.07-.09-.11-.13-.13-.04-.02-.19-.07-.43-.15-.3-.1-.45-.3-.45-.61,0-.19,.07-.33,.22-.43,.15-.1,.35-.15,.62-.15h5.59c.27,0,.48,.05,.62,.15,.15,.1,.22,.25,.22,.43,0,.31-.15,.51-.45,.61-.25,.08-.39,.13-.43,.15-.04,.02-.08,.06-.13,.13-.09,.12-.13,.31-.13,.57v11.24c0,.26,.04,.45,.13,.57,.04,.07,.09,.11,.13,.13,.04,.02,.19,.07,.43,.15,.3,.1,.45,.3,.45,.61,0,.19-.07,.33-.22,.43-.15,.1-.35,.15-.62,.15h-.29Z"/>
    <path class="cls-2" d="M76.53,30.12v15.33h-5.29c-.27,0-.48-.05-.62-.15-.15-.1-.22-.25-.22-.43,0-.31,.15-.51,.45-.61,.25-.08,.39-.13,.43-.15,.04-.02,.08-.06,.13-.13,.09-.12,.13-.31,.13-.57v-11.24c0-.26-.04-.45-.13-.57-.04-.07-.09-.11-.13-.13-.04-.02-.19-.07-.43-.15-.3-.1-.45-.3-.45-.61,0-.19,.07-.33,.22-.43,.15-.1,.35-.15,.62-.15h5.29Zm3.49,7.39c.67,.13,1.19,.27,1.56,.39,.36,.13,.69,.29,.98,.48,.5,.32,.89,.75,1.15,1.27,.27,.53,.4,1.12,.4,1.77,0,1.28-.47,2.28-1.42,3-.49,.37-1.02,.64-1.61,.79-.59,.15-1.36,.23-2.31,.23h-1.34v-1.18c.3-.02,.54-.07,.71-.13,.17-.06,.33-.17,.46-.32,.25-.28,.37-.71,.37-1.29v-2.55c0-.37-.03-.67-.1-.88-.06-.21-.18-.4-.35-.57-.13-.13-.27-.23-.42-.29s-.36-.11-.64-.15v-1.17c.28-.02,.49-.06,.65-.11,.15-.05,.29-.14,.42-.26,.12-.11,.22-.26,.3-.44s.13-.34,.13-.49v-2.56c0-.2-.03-.41-.1-.63-.07-.22-.15-.4-.25-.52-.14-.17-.3-.3-.48-.38-.18-.08-.41-.14-.71-.17v-1.24h1.29c1.71,0,3.01,.35,3.91,1.06,.41,.32,.73,.71,.94,1.17s.33,.95,.33,1.48-.11,1.02-.33,1.48c-.22,.46-.53,.85-.93,1.16-.29,.24-.63,.43-1.01,.58s-.92,.3-1.62,.46Z"/>
    <path class="cls-2" d="M85.34,30.12h2.95v1.36c-.35,.2-.62,.46-.82,.77-.32,.51-.54,1.11-.65,1.81l-.11,.69c-.04,.22-.12,.39-.24,.51s-.28,.19-.47,.19-.35-.07-.48-.2c-.12-.13-.19-.31-.19-.53v-4.59Zm8.85,0v13.2c0,.29,.06,.5,.17,.63,.06,.07,.12,.12,.17,.14,.05,.02,.22,.07,.52,.14,.36,.08,.54,.29,.54,.62,0,.19-.1,.35-.29,.47-.14,.09-.38,.13-.72,.13h-5.75c-.33,0-.58-.05-.75-.15-.17-.1-.25-.25-.25-.46,0-.33,.18-.54,.54-.62,.29-.07,.46-.12,.52-.14,.05-.02,.1-.07,.16-.14,.11-.13,.17-.34,.17-.63v-13.2h4.99Zm3.89,0v4.59c0,.22-.06,.39-.19,.53-.12,.13-.28,.2-.48,.2s-.34-.06-.47-.19-.2-.29-.24-.51l-.11-.69c-.11-.7-.33-1.3-.65-1.81-.2-.31-.48-.57-.82-.77v-1.36h2.95Z"/>
    <path class="cls-2" d="M106.86,34.06l1.19,1.98v6.02c0,.52,.09,.95,.26,1.29,.18,.34,.45,.61,.84,.83l.34,.19c.19,.11,.29,.28,.29,.51,0,.17-.07,.31-.21,.43-.12,.1-.37,.15-.74,.15h-2.59c-.68,0-1.02-.19-1.02-.58,0-.13,.04-.24,.11-.32,.07-.08,.23-.19,.47-.32,.72-.4,1.08-1.12,1.08-2.17v-8Zm4.71-3.94l5.97,10.38v4.95h-3.07l-7.63-13.14c-.16-.28-.3-.48-.4-.6s-.24-.19-.4-.25l-.43-.16c-.11-.04-.2-.1-.27-.2s-.1-.21-.1-.33c0-.13,.03-.25,.1-.35,.07-.11,.16-.19,.27-.23,.13-.05,.47-.08,1.03-.08h4.92Zm5.97,8.58l-1.19-2.01v-3.11c0-.63-.09-1.11-.28-1.44-.18-.33-.51-.62-.97-.86-.16-.07-.27-.16-.33-.24-.06-.09-.09-.2-.09-.33,0-.2,.07-.35,.2-.44,.13-.09,.34-.14,.63-.14h2.81c.38,0,.63,.06,.75,.18,.13,.12,.19,.26,.19,.43s-.04,.27-.11,.35c-.07,.08-.24,.19-.51,.32-.4,.2-.7,.51-.9,.93-.14,.31-.21,.72-.21,1.25v5.12Z"/>
    <path class="cls-2" d="M126.79,45.45h-5.3c-.27,0-.48-.05-.62-.15-.15-.1-.22-.25-.22-.43,0-.31,.15-.51,.45-.61,.25-.08,.39-.13,.43-.15,.04-.02,.08-.06,.13-.13,.09-.12,.13-.31,.13-.57v-11.24c0-.26-.04-.45-.13-.57-.04-.07-.09-.11-.13-.13-.04-.02-.19-.07-.43-.15-.3-.1-.45-.3-.45-.61,0-.19,.07-.33,.22-.43,.15-.1,.35-.15,.62-.15h5.59c.27,0,.48,.05,.62,.15,.15,.1,.22,.25,.22,.43,0,.31-.15,.51-.45,.61-.25,.08-.39,.13-.43,.15-.04,.02-.08,.06-.13,.13-.09,.12-.13,.31-.13,.57v11.24c0,.26,.04,.45,.13,.57,.04,.07,.09,.11,.13,.13,.04,.02,.19,.07,.43,.15,.3,.1,.45,.3,.45,.61,0,.19-.07,.33-.22,.43-.15,.1-.35,.15-.62,.15h-.29Z"/>
    <path class="cls-2" d="M135.94,29.82v1.36c-.44,.07-.77,.26-.99,.58s-.33,.78-.33,1.38v9.76c0,.17,.04,.35,.11,.54,.07,.19,.16,.35,.27,.49,.12,.15,.25,.26,.38,.32,.13,.06,.32,.11,.55,.13v1.37c-1.45,0-2.71-.38-3.78-1.13-.94-.67-1.65-1.56-2.13-2.69-.48-1.13-.72-2.46-.72-4,0-1.13,.16-2.18,.47-3.16,.31-.98,.76-1.83,1.35-2.54,.6-.73,1.32-1.31,2.15-1.75,.83-.44,1.64-.66,2.41-.66h.26Zm.89,1.38v-1.36c.37,.06,.66,.12,.89,.19,.23,.07,.64,.21,1.24,.43,.38,.13,.64,.2,.76,.2,.22,0,.38-.1,.49-.29l.15-.27c.09-.18,.26-.27,.5-.27,.2,0,.36,.06,.47,.18,.11,.12,.16,.3,.16,.53v4.67c0,.3-.07,.52-.2,.65s-.29,.2-.46,.2-.32-.06-.43-.17c-.11-.12-.2-.3-.26-.57-.16-.59-.31-1.06-.46-1.39-.32-.71-.69-1.29-1.1-1.73-.28-.3-.55-.53-.83-.69-.28-.16-.58-.26-.92-.31Zm.03,14.57v-1.37c.58-.04,1.2-.27,1.84-.66,.34-.22,.65-.51,.92-.87,.27-.36,.47-.76,.61-1.2,.07-.24,.16-.41,.26-.51,.1-.1,.23-.15,.4-.15,.18,0,.33,.07,.45,.2s.18,.3,.18,.51c0,.34-.13,.75-.39,1.22-.26,.48-.59,.92-.99,1.33-.49,.49-1,.86-1.52,1.1-.52,.24-1.11,.37-1.76,.4Z"/>
    <path class="cls-2" d="M149.59,45.45h-5.3c-.27,0-.48-.05-.62-.15-.15-.1-.22-.25-.22-.43,0-.31,.15-.51,.45-.61,.25-.08,.39-.13,.43-.15,.04-.02,.08-.06,.13-.13,.09-.12,.13-.31,.13-.57v-11.24c0-.26-.04-.45-.13-.57-.04-.07-.09-.11-.13-.13-.04-.02-.18-.07-.43-.15-.3-.1-.45-.3-.45-.61,0-.19,.07-.33,.22-.43,.15-.1,.35-.15,.62-.15h5.59c.53,0,.8,.19,.8,.58,0,.31-.14,.52-.43,.61l-.35,.11c-.22,.07-.33,.32-.33,.74v11.24c0,.42,.11,.67,.33,.74l.35,.11c.28,.09,.43,.29,.43,.61,0,.39-.27,.58-.8,.58h-.29Zm.94-8.39h1.83v-4.9c0-.42-.11-.67-.33-.74l-.36-.11c-.28-.09-.43-.29-.43-.61,0-.39,.27-.58,.81-.58h5.59c.56,0,.84,.19,.84,.58,0,.31-.15,.51-.45,.61-.25,.08-.39,.13-.43,.15-.04,.02-.08,.06-.13,.13-.09,.12-.13,.31-.13,.57v11.2c0,.41,.11,.66,.34,.75l.36,.12c.3,.1,.45,.3,.45,.62,0,.4-.28,.6-.84,.6h-5.62c-.52,0-.79-.2-.79-.6,0-.31,.14-.52,.43-.62l.36-.12c.22-.07,.33-.32,.33-.75v-5.19h-1.83v-1.11Z"/>
    <path class="cls-2" d="M160.11,30.12h2.95v1.36c-.35,.2-.62,.46-.82,.77-.32,.51-.54,1.11-.65,1.81l-.11,.69c-.04,.22-.12,.39-.24,.51s-.28,.19-.47,.19-.35-.07-.48-.2c-.12-.13-.18-.31-.18-.53v-4.59Zm8.85,0v13.2c0,.29,.06,.5,.17,.63,.06,.07,.12,.12,.17,.14,.05,.02,.22,.07,.52,.14,.36,.08,.54,.29,.54,.62,0,.19-.1,.35-.29,.47-.14,.09-.38,.13-.72,.13h-5.75c-.33,0-.58-.05-.75-.15-.17-.1-.25-.25-.25-.46,0-.33,.18-.54,.54-.62,.29-.07,.46-.12,.52-.14,.05-.02,.1-.07,.16-.14,.11-.13,.17-.34,.17-.63v-13.2h4.99Zm3.88,0v4.59c0,.22-.06,.39-.18,.53-.12,.13-.28,.2-.48,.2s-.34-.06-.47-.19-.2-.29-.24-.51l-.11-.69c-.11-.7-.33-1.3-.65-1.81-.2-.31-.48-.57-.82-.77v-1.36h2.95Z"/>
    <path class="cls-2" d="M179.4,29.82v1.29c-.46,.13-.82,.32-1.06,.59-.24,.27-.37,.59-.37,.98s.1,.7,.3,.98c.2,.28,.53,.55,.99,.8,.31,.17,1.03,.5,2.13,.99,.67,.29,1.2,.56,1.57,.79,.37,.24,.72,.53,1.05,.88,.88,.93,1.33,2.03,1.33,3.31,0,.97-.24,1.85-.72,2.65s-1.14,1.43-1.98,1.89c-.45,.24-.94,.43-1.48,.57-.54,.14-1.04,.21-1.5,.21v-1.28c.65-.16,1.12-.38,1.41-.66,.29-.28,.43-.66,.43-1.14s-.22-.94-.67-1.33c-.3-.25-.87-.55-1.71-.92-.92-.4-1.55-.69-1.89-.86s-.67-.37-.98-.61c-1.41-1-2.11-2.34-2.11-4.01,0-.85,.18-1.64,.53-2.36,.35-.72,.84-1.3,1.47-1.75,.88-.61,1.96-.95,3.26-1.02Zm-.58,14.66v1.28c-.61,0-1.29-.18-2.03-.53-.28-.13-.47-.21-.57-.25-.1-.04-.21-.06-.3-.06-.15,0-.26,.02-.34,.07-.08,.05-.19,.17-.36,.37-.13,.16-.28,.25-.44,.25-.42,0-.63-.32-.63-.97v-4.09c0-.21,.06-.39,.18-.53,.12-.15,.27-.22,.45-.23,.17,0,.29,.04,.39,.14,.09,.1,.17,.28,.24,.53,.17,.64,.42,1.25,.75,1.81,.33,.56,.71,1.04,1.14,1.43,.44,.4,.95,.66,1.53,.77Zm1.47-13.36v-1.24c.45,.03,.84,.09,1.17,.17,.33,.09,.8,.26,1.4,.51,.15,.06,.27,.09,.37,.09,.14,0,.25-.05,.31-.15l.25-.33c.12-.16,.27-.25,.44-.25,.2,0,.35,.07,.44,.22,.09,.15,.14,.38,.14,.69v3.71c0,.22-.06,.4-.19,.53-.12,.14-.28,.21-.48,.21-.15,0-.29-.05-.42-.15-.07-.06-.12-.13-.16-.22-.04-.09-.08-.23-.12-.43-.08-.37-.22-.75-.43-1.13s-.44-.74-.71-1.04c-.54-.61-1.22-1.01-2.03-1.2Z"/>
    <path class="cls-2" d="M198.71,29.82v1.25c-.66,.16-.99,.68-.99,1.57v10.46c0,.4,.06,.71,.17,.93,.1,.18,.3,.33,.62,.46v1.27c-.24,0-.46-.02-.66-.06s-.46-.11-.79-.22c-.79-.27-1.5-.68-2.13-1.24s-1.16-1.22-1.57-1.99c-.64-1.21-.95-2.63-.95-4.28s.28-3.01,.85-4.25c.57-1.24,1.38-2.21,2.45-2.91,.61-.41,1.27-.71,1.98-.89,.29-.07,.64-.11,1.03-.11Zm6,13.76c-.3,.3-.7,.6-1.2,.92-.5,.31-.97,.56-1.41,.74-.4,.16-.85,.28-1.34,.38s-.92,.15-1.3,.15v-1.27c.22-.05,.38-.12,.49-.19s.2-.18,.28-.31c.13-.23,.19-.53,.19-.89v-3.28c0-.29-.06-.5-.17-.63-.05-.07-.1-.12-.16-.14-.05-.02-.22-.06-.52-.13-.36-.09-.54-.3-.54-.63,0-.19,.08-.34,.25-.45,.17-.1,.42-.16,.75-.16h4.48c.34,0,.57,.05,.71,.14,.14,.09,.21,.26,.21,.49,0,.14-.03,.26-.08,.35-.06,.09-.16,.19-.31,.3-.15,.1-.24,.2-.28,.29s-.06,.25-.06,.49v3.83Zm-5.08-12.53v-1.21c1.22,.11,2.22,.34,3.01,.67,.23,.1,.41,.16,.54,.16,.12,0,.21-.03,.27-.08,.06-.06,.19-.21,.39-.48,.13-.19,.3-.28,.51-.28s.36,.06,.44,.17c.09,.12,.13,.31,.13,.58v4.37c0,.57-.21,.85-.63,.85-.21,0-.37-.06-.47-.17-.1-.11-.2-.33-.29-.66-.11-.42-.31-.91-.61-1.47-.29-.56-.57-1-.84-1.32-.31-.37-.65-.65-1.03-.83-.38-.18-.86-.28-1.43-.31Z"/>
    <path class="cls-2" d="M208.08,40.97v-8.8c0-.26-.04-.45-.13-.57-.04-.07-.09-.11-.13-.13-.04-.02-.19-.07-.43-.15-.3-.1-.45-.3-.45-.6,0-.19,.07-.34,.22-.44,.15-.1,.35-.15,.62-.15h5.59l.4,.04c.13,.04,.23,.1,.31,.2s.12,.21,.12,.35c0,.3-.15,.5-.45,.6-.25,.08-.39,.13-.43,.15-.04,.02-.08,.06-.13,.13-.09,.12-.13,.31-.13,.57v9.42c0,.64,.02,1.08,.05,1.33,.03,.25,.1,.48,.21,.68,.1,.19,.21,.32,.33,.4,.12,.08,.35,.18,.69,.28v1.47h-.25c-.97,0-1.78-.09-2.43-.26-.76-.2-1.42-.5-1.99-.9-.57-.4-.97-.84-1.21-1.34-.25-.52-.38-1.29-.38-2.29Zm7.29,4.78v-1.47c.75-.1,1.37-.4,1.88-.92,.57-.59,.85-1.44,.85-2.55v-7.32c0-1.03-.39-1.74-1.18-2.15-.23-.12-.38-.22-.46-.31-.07-.09-.11-.21-.11-.38,0-.19,.07-.33,.21-.42,.14-.08,.38-.12,.7-.12h2.75c.23,0,.39,0,.47,.02,.08,.01,.16,.04,.23,.08,.19,.11,.29,.27,.29,.46,0,.16-.06,.3-.18,.42-.04,.04-.2,.14-.48,.3-.33,.18-.59,.45-.77,.83-.19,.37-.28,.79-.28,1.26v7.33c0,1.26-.28,2.29-.83,3.1-.4,.6-.98,1.08-1.74,1.44-.37,.18-.82,.31-1.35,.39Z"/>
    <path class="cls-2" d="M222.23,30.12h2.95v1.36c-.35,.2-.62,.46-.82,.77-.32,.51-.54,1.11-.65,1.81l-.11,.69c-.04,.22-.12,.39-.24,.51s-.28,.19-.47,.19-.35-.07-.48-.2c-.12-.13-.18-.31-.18-.53v-4.59Zm8.85,0v13.2c0,.29,.06,.5,.17,.63,.06,.07,.12,.12,.17,.14,.05,.02,.22,.07,.52,.14,.36,.08,.54,.29,.54,.62,0,.19-.1,.35-.29,.47-.14,.09-.38,.13-.72,.13h-5.75c-.33,0-.58-.05-.75-.15-.17-.1-.25-.25-.25-.46,0-.33,.18-.54,.54-.62,.29-.07,.46-.12,.52-.14,.05-.02,.1-.07,.16-.14,.11-.13,.17-.34,.17-.63v-13.2h4.99Zm3.88,0v4.59c0,.22-.06,.39-.18,.53-.12,.13-.28,.2-.48,.2s-.34-.06-.47-.19-.2-.29-.24-.51l-.11-.69c-.11-.7-.33-1.3-.65-1.81-.2-.31-.48-.57-.82-.77v-1.36h2.95Z"/>
    <path class="cls-2" d="M242.48,30.12v15.33h-5.29c-.27,0-.48-.05-.62-.15-.15-.1-.22-.25-.22-.43,0-.31,.15-.51,.45-.61,.25-.08,.39-.13,.43-.15,.04-.02,.08-.06,.13-.13,.09-.12,.13-.31,.13-.57v-11.24c0-.26-.04-.45-.13-.57-.04-.07-.09-.11-.13-.13-.04-.02-.19-.07-.43-.15-.3-.1-.45-.3-.45-.61,0-.19,.07-.33,.22-.43,.15-.1,.35-.15,.62-.15h5.29Zm.94,8.18v-1.3c.43-.21,.76-.44,.97-.69s.36-.58,.46-.99c.06-.28,.14-.48,.24-.59,.1-.11,.24-.16,.42-.16,.24,0,.4,.09,.49,.28,.05,.1,.08,.32,.08,.66v4.28c0,.35-.04,.6-.12,.73-.08,.13-.22,.2-.43,.2-.17,0-.31-.05-.4-.16-.1-.1-.18-.28-.24-.53-.13-.52-.31-.91-.54-1.19-.24-.28-.54-.46-.92-.55Zm.06-8.18h4.53v3.98c0,.23-.04,.4-.13,.51s-.23,.16-.43,.16c-.17,0-.28-.03-.36-.1s-.15-.21-.21-.42c-.28-.87-.7-1.53-1.25-1.99-.55-.46-1.26-.73-2.14-.82v-1.31Zm.01,15.33v-1.21c.49-.07,.89-.18,1.21-.31s.64-.34,.96-.62c.32-.28,.58-.56,.77-.86,.19-.3,.37-.69,.54-1.17,.08-.24,.17-.4,.26-.49,.09-.09,.21-.13,.37-.13,.21,0,.36,.06,.44,.19,.08,.12,.12,.34,.12,.65v3.96h-4.67Z"/>
    <path class="cls-2" d="M255.02,29.82v1.29c-.46,.13-.82,.32-1.06,.59-.24,.27-.37,.59-.37,.98s.1,.7,.3,.98c.2,.28,.53,.55,.99,.8,.31,.17,1.03,.5,2.13,.99,.67,.29,1.2,.56,1.57,.79,.37,.24,.72,.53,1.05,.88,.88,.93,1.33,2.03,1.33,3.31,0,.97-.24,1.85-.72,2.65s-1.14,1.43-1.98,1.89c-.45,.24-.94,.43-1.48,.57-.54,.14-1.04,.21-1.5,.21v-1.28c.65-.16,1.12-.38,1.41-.66,.29-.28,.43-.66,.43-1.14s-.22-.94-.67-1.33c-.3-.25-.87-.55-1.71-.92-.92-.4-1.55-.69-1.89-.86s-.67-.37-.98-.61c-1.41-1-2.11-2.34-2.11-4.01,0-.85,.18-1.64,.53-2.36,.35-.72,.84-1.3,1.47-1.75,.88-.61,1.96-.95,3.26-1.02Zm-.58,14.66v1.28c-.61,0-1.29-.18-2.03-.53-.28-.13-.47-.21-.57-.25-.1-.04-.21-.06-.3-.06-.15,0-.26,.02-.34,.07-.08,.05-.19,.17-.36,.37-.13,.16-.28,.25-.44,.25-.42,0-.63-.32-.63-.97v-4.09c0-.21,.06-.39,.18-.53,.12-.15,.27-.22,.45-.23,.17,0,.29,.04,.39,.14,.09,.1,.17,.28,.24,.53,.17,.64,.42,1.25,.75,1.81,.33,.56,.71,1.04,1.14,1.43,.44,.4,.95,.66,1.53,.77Zm1.47-13.36v-1.24c.45,.03,.84,.09,1.17,.17,.33,.09,.8,.26,1.4,.51,.15,.06,.27,.09,.37,.09,.14,0,.25-.05,.31-.15l.25-.33c.12-.16,.27-.25,.44-.25,.2,0,.35,.07,.44,.22,.09,.15,.14,.38,.14,.69v3.71c0,.22-.06,.4-.19,.53-.12,.14-.28,.21-.48,.21-.15,0-.29-.05-.42-.15-.07-.06-.12-.13-.16-.22-.04-.09-.08-.23-.12-.43-.08-.37-.22-.75-.43-1.13s-.44-.74-.71-1.04c-.54-.61-1.22-1.01-2.03-1.2Z"/>
    <path class="cls-2" d="M265.61,41.42c.64,0,1.19,.25,1.65,.75,.22,.23,.39,.51,.52,.85,.13,.33,.19,.67,.19,1.01,0,.71-.23,1.43-.7,2.16-.46,.73-1.08,1.35-1.86,1.86-.66,.43-1.18,.65-1.55,.65-.15,0-.27-.04-.37-.13s-.15-.21-.15-.36c0-.22,.14-.41,.43-.56,.68-.35,1.18-.7,1.49-1.04,.3-.32,.45-.56,.45-.71,0-.14-.11-.23-.34-.26l-.15-.02h-.17c-.49-.09-.88-.31-1.18-.69-.3-.38-.46-.84-.46-1.38s.19-1.03,.56-1.44c.43-.46,.97-.69,1.63-.69Z"/>
    <path class="cls-2" d="M23.76,69.52l.55,2.22-1.9,6.94c-.06,.2-.09,.39-.09,.56,0,.45,.21,.77,.63,.97l.38,.17c.24,.11,.35,.29,.35,.54,0,.36-.26,.54-.78,.54h-2.73c-.27,0-.47-.06-.63-.17-.15-.11-.23-.26-.23-.46,0-.21,.16-.38,.47-.52,.29-.13,.51-.25,.65-.35,.14-.1,.27-.25,.4-.42,.2-.29,.37-.68,.49-1.17l2.43-8.85Zm.74-2.73h4.33l2.99,12.62c.06,.22,.12,.42,.19,.59,.06,.14,.21,.25,.43,.33,.19,.08,.31,.16,.39,.24,.07,.08,.11,.19,.11,.32,0,.37-.28,.56-.84,.56h-5.36c-.21,0-.39-.05-.52-.16-.13-.1-.19-.24-.19-.41,0-.14,.03-.25,.09-.32,.06-.07,.19-.16,.39-.27,.14-.07,.24-.15,.3-.24,.06-.09,.09-.19,.09-.32,0-.12-.01-.23-.03-.32l-.34-1.56h-3l.29-1.28h2.41l-1.98-8.73,.27-1.05Z"/>
    <path class="cls-2" d="M34.72,77.17v-8.42c0-.25-.04-.43-.13-.55-.04-.06-.08-.11-.12-.12-.04-.02-.18-.07-.41-.15-.29-.09-.43-.28-.43-.57,0-.19,.07-.33,.21-.42s.34-.15,.6-.15h5.35l.39,.04c.12,.04,.22,.1,.3,.19,.08,.09,.12,.2,.12,.33,0,.29-.14,.48-.43,.57-.24,.08-.37,.13-.41,.15-.04,.02-.08,.06-.12,.12-.09,.11-.13,.3-.13,.55v9.01c0,.61,.02,1.03,.05,1.27,.03,.24,.1,.46,.2,.65,.09,.18,.2,.31,.31,.39,.11,.08,.33,.17,.66,.27v1.41h-.24c-.93,0-1.7-.08-2.32-.25-.72-.19-1.36-.48-1.9-.86-.54-.38-.93-.81-1.16-1.28-.24-.5-.37-1.23-.37-2.19Zm6.97,4.58v-1.41c.72-.09,1.31-.39,1.79-.88,.54-.57,.82-1.38,.82-2.44v-7c0-.98-.38-1.67-1.13-2.05-.22-.11-.37-.21-.44-.3-.07-.08-.1-.2-.1-.36,0-.19,.07-.32,.2-.4,.14-.08,.36-.12,.67-.12h2.63c.22,0,.37,0,.45,.02s.15,.04,.22,.08c.19,.11,.28,.25,.28,.44,0,.16-.06,.29-.17,.4-.04,.04-.19,.13-.46,.29-.32,.17-.56,.44-.74,.79-.18,.35-.27,.76-.27,1.21v7.01c0,1.2-.27,2.19-.79,2.96-.39,.57-.94,1.03-1.67,1.38-.36,.17-.79,.3-1.29,.38Z"/>
    <path class="cls-2" d="M53.65,66.5v1.24c-.44,.12-.78,.31-1.02,.56-.23,.25-.35,.57-.35,.94s.1,.67,.29,.94,.51,.52,.95,.77c.3,.17,.98,.48,2.04,.95,.64,.28,1.14,.53,1.5,.76s.69,.51,1,.84c.84,.89,1.27,1.94,1.27,3.17,0,.92-.23,1.77-.69,2.54-.46,.77-1.09,1.37-1.89,1.8-.43,.23-.9,.41-1.41,.54-.51,.13-.99,.2-1.43,.2v-1.22c.62-.15,1.07-.36,1.35-.63,.28-.27,.41-.63,.41-1.09s-.21-.9-.64-1.27c-.29-.24-.83-.53-1.63-.88-.88-.39-1.48-.66-1.81-.83-.33-.16-.64-.36-.94-.58-1.35-.96-2.02-2.24-2.02-3.83,0-.82,.17-1.57,.5-2.26,.34-.69,.81-1.25,1.41-1.67,.84-.59,1.88-.91,3.12-.98Zm-.56,14.02v1.22c-.59,0-1.24-.17-1.94-.5-.27-.12-.45-.2-.55-.24-.1-.04-.2-.05-.29-.05-.14,0-.25,.02-.32,.07-.07,.05-.19,.16-.34,.35-.13,.16-.27,.24-.42,.24-.4,0-.6-.31-.6-.92v-3.91c0-.2,.06-.37,.17-.51,.11-.14,.26-.21,.43-.22,.16,0,.28,.04,.37,.13,.09,.1,.17,.27,.23,.51,.16,.62,.4,1.19,.71,1.73s.67,.99,1.09,1.36c.42,.39,.91,.63,1.46,.74Zm1.41-12.78v-1.18c.43,.03,.8,.08,1.12,.17,.31,.08,.76,.25,1.34,.49,.14,.06,.26,.09,.35,.09,.14,0,.24-.05,.3-.14l.24-.31c.11-.16,.25-.24,.42-.24,.19,0,.33,.07,.42,.21,.09,.14,.13,.36,.13,.66v3.54c0,.21-.06,.38-.18,.51-.12,.13-.27,.2-.46,.2-.14,0-.28-.05-.4-.14-.06-.06-.12-.13-.16-.21-.04-.08-.08-.22-.11-.41-.08-.35-.21-.71-.41-1.08-.19-.37-.42-.71-.68-1-.52-.58-1.16-.96-1.94-1.15Z"/>
    <path class="cls-2" d="M65.97,66.5v1.24c-.44,.12-.78,.31-1.02,.56-.23,.25-.35,.57-.35,.94s.1,.67,.29,.94,.51,.52,.95,.77c.3,.17,.98,.48,2.04,.95,.64,.28,1.14,.53,1.5,.76s.69,.51,1,.84c.84,.89,1.27,1.94,1.27,3.17,0,.92-.23,1.77-.69,2.54-.46,.77-1.09,1.37-1.89,1.8-.43,.23-.9,.41-1.41,.54-.51,.13-.99,.2-1.43,.2v-1.22c.62-.15,1.07-.36,1.35-.63,.28-.27,.41-.63,.41-1.09s-.21-.9-.64-1.27c-.29-.24-.83-.53-1.63-.88-.88-.39-1.48-.66-1.81-.83-.33-.16-.64-.36-.94-.58-1.35-.96-2.02-2.24-2.02-3.83,0-.82,.17-1.57,.5-2.26,.34-.69,.81-1.25,1.41-1.67,.84-.59,1.88-.91,3.12-.98Zm-.56,14.02v1.22c-.59,0-1.24-.17-1.94-.5-.27-.12-.45-.2-.55-.24-.1-.04-.2-.05-.29-.05-.14,0-.25,.02-.32,.07-.07,.05-.19,.16-.34,.35-.13,.16-.27,.24-.42,.24-.4,0-.6-.31-.6-.92v-3.91c0-.2,.06-.37,.17-.51,.11-.14,.26-.21,.43-.22,.16,0,.28,.04,.37,.13,.09,.1,.17,.27,.23,.51,.16,.62,.4,1.19,.71,1.73s.67,.99,1.09,1.36c.42,.39,.91,.63,1.46,.74Zm1.41-12.78v-1.18c.43,.03,.8,.08,1.12,.17,.31,.08,.76,.25,1.34,.49,.14,.06,.26,.09,.35,.09,.14,0,.24-.05,.3-.14l.24-.31c.11-.16,.25-.24,.42-.24,.19,0,.33,.07,.42,.21,.09,.14,.13,.36,.13,.66v3.54c0,.21-.06,.38-.18,.51-.12,.13-.27,.2-.46,.2-.14,0-.28-.05-.4-.14-.06-.06-.12-.13-.16-.21-.04-.08-.08-.22-.11-.41-.08-.35-.21-.71-.41-1.08-.19-.37-.42-.71-.68-1-.52-.58-1.16-.96-1.94-1.15Z"/>
    <path class="cls-2" d="M79.21,66.79v14.66h-5.06c-.26,0-.46-.05-.6-.15s-.21-.23-.21-.41c0-.29,.14-.49,.43-.58,.24-.08,.37-.13,.41-.15,.04-.02,.08-.06,.12-.12,.09-.11,.13-.3,.13-.55v-10.75c0-.25-.04-.43-.13-.55-.04-.06-.08-.11-.12-.12-.04-.02-.18-.07-.41-.15-.29-.09-.43-.29-.43-.58,0-.18,.07-.32,.21-.41s.34-.15,.6-.15h5.06Zm.9,7.82v-1.25c.42-.2,.72-.42,.92-.66,.2-.24,.35-.55,.44-.95,.06-.27,.13-.46,.23-.56,.09-.1,.23-.16,.4-.16,.23,0,.39,.09,.47,.27,.05,.09,.08,.3,.08,.63v4.09c0,.34-.04,.57-.11,.7s-.21,.19-.41,.19c-.17,0-.29-.05-.39-.15-.09-.1-.17-.27-.23-.5-.12-.49-.3-.87-.52-1.14-.23-.26-.52-.44-.88-.53Zm.05-7.82h4.33v3.8c0,.22-.04,.38-.13,.48-.09,.1-.22,.15-.41,.15-.16,0-.27-.03-.34-.1-.07-.06-.14-.2-.2-.4-.27-.83-.67-1.46-1.2-1.9-.53-.44-1.21-.7-2.05-.78v-1.26Zm.01,14.66v-1.16c.47-.07,.85-.17,1.15-.3,.3-.13,.61-.33,.92-.59,.31-.26,.55-.54,.74-.82,.18-.28,.36-.66,.52-1.12,.08-.23,.16-.38,.25-.47,.09-.08,.2-.12,.35-.12,.2,0,.34,.06,.42,.18,.08,.12,.12,.32,.12,.62v3.79h-4.47Z"/>
    <path class="cls-2" d="M92.12,66.79v12.62c0,.28,.05,.48,.16,.6,.06,.07,.11,.12,.16,.13,.05,.02,.21,.06,.49,.13,.34,.08,.52,.28,.52,.59,0,.19-.09,.34-.28,.45-.14,.09-.36,.13-.68,.13h-5.44c-.26,0-.46-.05-.6-.15s-.21-.23-.21-.41c0-.29,.14-.49,.43-.58,.24-.08,.37-.13,.41-.15,.04-.02,.08-.06,.12-.12,.09-.11,.13-.3,.13-.55v-10.75c0-.25-.04-.43-.13-.55-.04-.06-.08-.11-.12-.12-.04-.02-.18-.07-.41-.15-.29-.09-.43-.29-.43-.58,0-.18,.07-.32,.21-.41s.34-.15,.6-.15h5.06Zm3.3,7.48c.66,.1,1.17,.21,1.52,.33,.35,.12,.67,.29,.96,.49,.3,.22,.53,.49,.69,.79,.16,.31,.24,.63,.24,.98v2.22c0,.23,.08,.34,.23,.34,.06,0,.11-.02,.15-.05,.04-.03,.09-.09,.17-.19,.18-.24,.36-.37,.55-.37,.12,0,.24,.06,.37,.19,.12,.13,.18,.26,.18,.39,0,.22-.11,.49-.32,.81-.21,.32-.47,.6-.79,.85-.29,.24-.61,.41-.96,.51-.34,.1-.75,.16-1.21,.16-.95,0-1.68-.27-2.21-.81-.53-.54-.79-1.29-.79-2.26v-1.8c0-.4,0-.63-.01-.7-.04-.29-.14-.53-.3-.74-.21-.25-.5-.4-.89-.44v-1.15c.39-.06,.66-.16,.83-.3,.14-.13,.24-.28,.3-.44,.05-.16,.08-.41,.08-.73v-2.85c0-.45-.09-.79-.26-1.01-.18-.22-.49-.4-.95-.53v-1.19h.28c.79,0,1.47,.03,2.03,.09,.83,.08,1.57,.35,2.22,.82,.94,.67,1.41,1.62,1.41,2.85,0,1.01-.32,1.84-.95,2.48-.27,.27-.57,.49-.93,.67s-.89,.37-1.62,.58Z"/>
    <path class="cls-2" d="M112.79,66.79l2.12,6.03,.93-3.25v3.57l-2.48,8.33h-.57l-4.17-12.36c-.14-.42-.29-.69-.45-.84-.09-.09-.25-.16-.48-.2-.47-.1-.7-.32-.7-.67,0-.19,.07-.33,.2-.44,.13-.1,.32-.16,.57-.16h5.03Zm-4.17,4.94l1.14,3.24v3.23c0,.33,.01,.57,.04,.71,.02,.14,.08,.3,.17,.47,.15,.32,.36,.55,.62,.71l.4,.26c.27,.17,.41,.35,.41,.55,0,.37-.27,.55-.81,.55h-2.7c-.54,0-.81-.18-.81-.54,0-.11,.02-.2,.07-.26,.05-.06,.14-.13,.27-.21,.79-.43,1.19-1.17,1.19-2.23v-6.48Zm8.12-4.94h5.06c.54,0,.81,.19,.81,.56,0,.29-.14,.49-.43,.58-.24,.08-.37,.13-.41,.15-.04,.02-.08,.06-.12,.12-.09,.11-.13,.3-.13,.55v10.75c0,.25,.04,.43,.13,.55,.04,.06,.08,.11,.12,.12,.04,.02,.18,.07,.41,.15,.29,.09,.43,.29,.43,.58,0,.37-.27,.56-.81,.56h-5.42c-.32,0-.55-.05-.71-.15s-.24-.24-.24-.44c0-.31,.17-.51,.52-.59,.28-.07,.44-.12,.49-.13,.05-.02,.1-.06,.15-.12,.11-.13,.16-.33,.16-.61v-12.62Z"/>
    <path class="cls-2" d="M127.93,69.52l.55,2.22-1.9,6.94c-.06,.2-.09,.39-.09,.56,0,.45,.21,.77,.63,.97l.38,.17c.24,.11,.35,.29,.35,.54,0,.36-.26,.54-.78,.54h-2.73c-.27,0-.47-.06-.63-.17-.15-.11-.23-.26-.23-.46,0-.21,.16-.38,.47-.52,.29-.13,.51-.25,.65-.35,.14-.1,.27-.25,.4-.42,.2-.29,.37-.68,.49-1.17l2.43-8.85Zm.74-2.73h4.33l2.99,12.62c.06,.22,.12,.42,.19,.59,.06,.14,.21,.25,.43,.33,.19,.08,.31,.16,.39,.24,.07,.08,.11,.19,.11,.32,0,.37-.28,.56-.84,.56h-5.36c-.21,0-.39-.05-.52-.16-.13-.1-.19-.24-.19-.41,0-.14,.03-.25,.09-.32,.06-.07,.19-.16,.39-.27,.14-.07,.24-.15,.3-.24,.06-.09,.09-.19,.09-.32,0-.12-.01-.23-.03-.32l-.34-1.56h-3l.29-1.28h2.41l-1.98-8.73,.27-1.05Z"/>
    <path class="cls-2" d="M139.57,70.56l1.14,1.89v5.76c0,.5,.08,.91,.25,1.24s.43,.59,.8,.79l.32,.18c.19,.11,.28,.27,.28,.48,0,.17-.07,.3-.2,.41-.12,.09-.35,.14-.71,.14h-2.48c-.65,0-.98-.19-.98-.56,0-.13,.03-.23,.1-.31,.07-.08,.22-.18,.45-.31,.69-.38,1.03-1.07,1.03-2.07v-7.65Zm4.5-3.77l5.71,9.93v4.74h-2.93l-7.29-12.57c-.16-.27-.29-.46-.39-.57-.1-.11-.23-.19-.39-.24l-.41-.15c-.11-.04-.19-.1-.26-.19-.06-.09-.1-.2-.1-.31,0-.12,.03-.23,.1-.34,.06-.1,.15-.18,.26-.22,.12-.05,.45-.08,.99-.08h4.71Zm5.71,8.21l-1.14-1.92v-2.98c0-.6-.09-1.06-.26-1.38-.18-.32-.48-.59-.93-.82-.15-.07-.25-.15-.31-.23-.06-.08-.09-.19-.09-.32,0-.19,.06-.33,.19-.42,.12-.09,.33-.13,.61-.13h2.69c.37,0,.61,.06,.72,.17,.12,.11,.18,.25,.18,.41s-.04,.26-.1,.34c-.07,.08-.23,.18-.49,.31-.38,.19-.67,.49-.86,.89-.13,.29-.2,.69-.2,1.19v4.9Z"/>
    <path class="cls-2" d="M157.82,66.79h2.83v1.3c-.34,.19-.6,.44-.78,.74-.31,.49-.52,1.06-.62,1.73l-.11,.66c-.04,.21-.11,.37-.23,.49-.12,.12-.27,.18-.45,.18s-.34-.06-.46-.19c-.12-.13-.18-.3-.18-.5v-4.39Zm8.46,0v12.62c0,.28,.05,.48,.16,.6,.06,.07,.11,.12,.16,.13,.05,.02,.21,.06,.49,.13,.34,.08,.52,.28,.52,.59,0,.19-.09,.34-.28,.45-.14,.09-.37,.13-.69,.13h-5.5c-.32,0-.55-.05-.71-.15-.16-.1-.24-.24-.24-.44,0-.31,.17-.51,.52-.59,.28-.07,.44-.12,.49-.13,.05-.02,.1-.06,.15-.13,.11-.12,.16-.32,.16-.6v-12.62h4.77Zm3.72,0v4.39c0,.21-.06,.38-.18,.5-.12,.13-.27,.19-.46,.19s-.33-.06-.45-.18c-.12-.12-.2-.28-.23-.49l-.11-.66c-.11-.67-.32-1.24-.62-1.73-.19-.3-.46-.55-.78-.74v-1.3h2.83Z"/>
    <path class="cls-2" d="M176.97,67.66c-.37,.13-.62,.3-.77,.53-.15,.22-.23,.55-.23,.98v9.6c0,.63,.09,1.07,.26,1.33,.14,.21,.38,.37,.74,.46v1.18c-1.59-.13-2.92-.73-4-1.79-1.4-1.39-2.09-3.33-2.09-5.81,0-1.25,.18-2.37,.55-3.38,.37-1.01,.91-1.86,1.64-2.56,.55-.54,1.15-.95,1.78-1.22s1.34-.44,2.12-.47v1.16Zm.88,0v-1.16c.77,.04,1.48,.19,2.12,.47,.64,.28,1.24,.69,1.79,1.22,1.46,1.43,2.19,3.41,2.19,5.94s-.7,4.42-2.09,5.81c-1.07,1.07-2.41,1.67-4.01,1.79v-1.18c.19-.04,.33-.1,.44-.17,.1-.07,.2-.17,.28-.3,.19-.29,.29-.74,.29-1.33v-9.6c0-.38-.06-.68-.19-.9-.09-.15-.19-.27-.31-.35-.12-.09-.29-.17-.51-.25Z"/>
    <path class="cls-2" d="M190.93,67.66c-.37,.13-.62,.3-.77,.53-.15,.22-.23,.55-.23,.98v9.6c0,.63,.09,1.07,.26,1.33,.14,.21,.38,.37,.74,.46v1.18c-1.59-.13-2.92-.73-4-1.79-1.4-1.39-2.09-3.33-2.09-5.81,0-1.25,.18-2.37,.55-3.38,.37-1.01,.91-1.86,1.64-2.56,.55-.54,1.15-.95,1.78-1.22s1.34-.44,2.12-.47v1.16Zm.88,0v-1.16c.77,.04,1.48,.19,2.12,.47,.64,.28,1.24,.69,1.79,1.22,1.46,1.43,2.19,3.41,2.19,5.94s-.7,4.42-2.09,5.81c-1.07,1.07-2.41,1.67-4.01,1.79v-1.18c.19-.04,.33-.1,.44-.17,.1-.07,.2-.17,.28-.3,.19-.29,.29-.74,.29-1.33v-9.6c0-.38-.06-.68-.19-.9-.09-.15-.19-.27-.31-.35-.12-.09-.29-.17-.51-.25Z"/>
    <path class="cls-2" d="M198.79,66.79h2.83v1.3c-.34,.19-.6,.44-.78,.74-.31,.49-.52,1.06-.62,1.73l-.11,.66c-.04,.21-.11,.37-.23,.49-.12,.12-.27,.18-.45,.18s-.34-.06-.46-.19c-.12-.13-.18-.3-.18-.5v-4.39Zm8.46,0v12.62c0,.28,.05,.48,.16,.6,.06,.07,.11,.12,.16,.13,.05,.02,.21,.06,.49,.13,.34,.08,.52,.28,.52,.59,0,.19-.09,.34-.28,.45-.14,.09-.37,.13-.69,.13h-5.5c-.32,0-.55-.05-.71-.15-.16-.1-.24-.24-.24-.44,0-.31,.17-.51,.52-.59,.28-.07,.44-.12,.49-.13,.05-.02,.1-.06,.15-.13,.11-.12,.16-.32,.16-.6v-12.62h4.77Zm3.72,0v4.39c0,.21-.06,.38-.18,.5-.12,.13-.27,.19-.46,.19s-.33-.06-.45-.18c-.12-.12-.2-.28-.23-.49l-.11-.66c-.11-.67-.32-1.24-.62-1.73-.19-.3-.46-.55-.78-.74v-1.3h2.83Z"/>
    <path class="cls-2" d="M218.16,66.79v14.66h-5.06c-.26,0-.46-.05-.6-.15-.14-.1-.21-.23-.21-.41,0-.29,.14-.49,.43-.58,.24-.08,.37-.13,.41-.15,.04-.02,.08-.06,.12-.12,.09-.11,.13-.3,.13-.55v-10.75c0-.25-.04-.43-.13-.55-.04-.06-.08-.11-.12-.12-.04-.02-.18-.07-.41-.15-.29-.09-.43-.29-.43-.58,0-.18,.07-.32,.21-.41,.14-.1,.34-.15,.6-.15h5.06Zm.9,7.82v-1.25c.42-.2,.72-.42,.92-.66s.35-.55,.44-.95c.06-.27,.13-.46,.23-.56,.09-.1,.23-.16,.4-.16,.23,0,.39,.09,.47,.27,.05,.09,.08,.3,.08,.63v4.09c0,.34-.04,.57-.11,.7-.07,.13-.21,.19-.41,.19-.17,0-.29-.05-.39-.15-.09-.1-.17-.27-.23-.5-.12-.49-.29-.87-.52-1.14-.22-.26-.52-.44-.88-.53Zm.05-7.82h4.33v3.8c0,.22-.04,.38-.13,.48-.09,.1-.22,.15-.41,.15-.16,0-.27-.03-.34-.1s-.14-.2-.2-.4c-.27-.83-.67-1.46-1.2-1.9-.53-.44-1.21-.7-2.05-.78v-1.26Zm.01,14.66v-1.16c.47-.07,.85-.17,1.15-.3,.3-.13,.61-.33,.92-.59,.31-.26,.55-.54,.74-.82,.18-.28,.36-.66,.52-1.12,.08-.23,.16-.38,.25-.47,.09-.08,.2-.12,.35-.12,.2,0,.34,.06,.42,.18s.12,.32,.12,.62v3.79h-4.47Z"/>
    <path class="cls-2" d="M224.76,66.79h2.83v1.3c-.34,.19-.6,.44-.78,.74-.31,.49-.52,1.06-.62,1.73l-.11,.66c-.04,.21-.11,.37-.23,.49-.12,.12-.27,.18-.45,.18s-.34-.06-.46-.19c-.12-.13-.18-.3-.18-.5v-4.39Zm8.46,0v12.62c0,.28,.05,.48,.16,.6,.06,.07,.11,.12,.16,.13,.05,.02,.21,.06,.49,.13,.34,.08,.52,.28,.52,.59,0,.19-.09,.34-.28,.45-.14,.09-.37,.13-.69,.13h-5.5c-.32,0-.55-.05-.71-.15-.16-.1-.24-.24-.24-.44,0-.31,.17-.51,.52-.59,.28-.07,.44-.12,.49-.13,.05-.02,.1-.06,.15-.13,.11-.12,.16-.32,.16-.6v-12.62h4.77Zm3.72,0v4.39c0,.21-.06,.38-.18,.5-.12,.13-.27,.19-.46,.19s-.33-.06-.45-.18c-.12-.12-.2-.28-.23-.49l-.11-.66c-.11-.67-.32-1.24-.62-1.73-.19-.3-.46-.55-.78-.74v-1.3h2.83Z"/>
    <path class="cls-2" d="M242.78,66.5c.14,0,.26,.04,.35,.13,.09,.09,.14,.2,.14,.34,0,.21-.14,.39-.41,.54-.65,.34-1.13,.68-1.43,1-.28,.31-.42,.53-.42,.68s.11,.22,.32,.25h.13s.17,.03,.17,.03c.47,.06,.84,.28,1.13,.64,.29,.36,.43,.8,.43,1.33s-.18,.98-.54,1.38c-.4,.44-.92,.66-1.56,.66s-1.14-.24-1.57-.72c-.45-.49-.68-1.1-.68-1.84,0-.65,.23-1.33,.68-2.02s1.04-1.28,1.76-1.76c.63-.42,1.12-.62,1.48-.62Z"/>
    <path class="cls-2" d="M250.57,66.5v1.24c-.44,.12-.78,.31-1.01,.56-.23,.25-.35,.57-.35,.94s.1,.67,.29,.94,.51,.52,.95,.77c.3,.17,.98,.48,2.04,.95,.64,.28,1.14,.53,1.5,.76,.35,.23,.69,.51,1,.84,.84,.89,1.27,1.94,1.27,3.17,0,.92-.23,1.77-.69,2.54-.46,.77-1.09,1.37-1.89,1.8-.43,.23-.9,.41-1.41,.54-.51,.13-.99,.2-1.43,.2v-1.22c.62-.15,1.07-.36,1.35-.63,.28-.27,.41-.63,.41-1.09s-.21-.9-.64-1.27c-.29-.24-.83-.53-1.63-.88-.88-.39-1.48-.66-1.81-.83-.33-.16-.64-.36-.94-.58-1.35-.96-2.02-2.24-2.02-3.83,0-.82,.17-1.57,.5-2.26,.34-.69,.81-1.25,1.41-1.67,.84-.59,1.88-.91,3.12-.98Zm-.56,14.02v1.22c-.59,0-1.24-.17-1.94-.5-.26-.12-.45-.2-.55-.24-.1-.04-.2-.05-.29-.05-.14,0-.25,.02-.32,.07-.07,.05-.19,.16-.34,.35-.13,.16-.27,.24-.42,.24-.4,0-.6-.31-.6-.92v-3.91c0-.2,.06-.37,.17-.51s.26-.21,.43-.22c.16,0,.28,.04,.37,.13,.09,.1,.17,.27,.23,.51,.17,.62,.4,1.19,.71,1.73,.31,.54,.68,.99,1.09,1.36,.42,.39,.91,.63,1.46,.74Zm1.41-12.78v-1.18c.43,.03,.8,.08,1.12,.17,.32,.08,.76,.25,1.34,.49,.14,.06,.26,.09,.35,.09,.14,0,.24-.05,.3-.14l.24-.31c.11-.16,.25-.24,.42-.24,.19,0,.33,.07,.42,.21,.09,.14,.13,.36,.13,.66v3.54c0,.21-.06,.38-.18,.51-.12,.13-.27,.2-.46,.2-.14,0-.28-.05-.4-.14-.06-.06-.12-.13-.16-.21-.04-.08-.08-.22-.11-.41-.08-.35-.21-.71-.41-1.08-.19-.37-.42-.71-.68-1-.52-.58-1.16-.96-1.94-1.15Z"/>
    <path class="cls-2" d="M260.61,70.55c.57,0,1.06,.2,1.47,.61s.61,.9,.61,1.47-.2,1.07-.61,1.48-.9,.61-1.47,.61-1.07-.2-1.48-.61-.61-.9-.61-1.48,.2-1.06,.61-1.47,.9-.61,1.48-.61Zm0,7.01c.57,0,1.06,.2,1.47,.61s.61,.9,.61,1.47-.2,1.07-.61,1.48-.9,.61-1.47,.61-1.07-.2-1.48-.61-.61-.9-.61-1.48,.2-1.06,.61-1.47,.9-.61,1.48-.61Z"/>
  </g>
  <path class="cls-3" d="M87.95,111.53m136.55,52.34v-45.95c0-3.53-2.86-6.39-6.39-6.39H65.36c-3.53,0-6.39,2.86-6.39,6.39v45.95c0,3.53,2.86,6.39,6.39,6.39H218.11c3.53,0,6.39-2.86,6.39-6.39Zm-133.52-32.62v-3.99h14.91v4.03c0,.41-.15,.76-.44,1.05s-.64,.43-1.04,.43-.76-.15-1.06-.44-.45-.64-.45-1.04v-1.07h-2.99v18.9c0,.41-.15,.76-.44,1.05s-.64,.43-1.04,.43c-.42,0-.78-.14-1.07-.43s-.44-.64-.44-1.05v-18.9h-2.99v1.04c0,.41-.14,.76-.43,1.05s-.64,.43-1.05,.43-.76-.14-1.05-.43-.43-.64-.43-1.05Zm36.65,7.7v6.24c0,1.32-.62,2.55-1.87,3.67s-2.53,1.69-3.86,1.69h-3.46c-1.35,0-2.64-.57-3.87-1.71s-1.85-2.36-1.85-3.65v-6.24c0-1.29,.6-2.5,1.8-3.65s2.5-1.71,3.91-1.71h3.46c1.32-.02,2.61,.53,3.86,1.65s1.87,2.36,1.87,3.71Zm-11.92,.12v5.98c0,.54,.19,.97,.58,1.28l1.11,.95c.25,.21,.59,.32,1.04,.32h3.43c.5,0,.96-.18,1.37-.54l.9-.79c.36-.28,.54-.67,.54-1.18v-5.98c0-.59-.18-1.02-.54-1.3l-1.04-.83c-.35-.29-.76-.44-1.23-.44h-3.06c-.67,0-1.18,.16-1.55,.47l-1,.86c-.36,.3-.54,.7-.54,1.2Zm33.66-.12v6.24c0,1.32-.62,2.55-1.87,3.67s-2.53,1.69-3.86,1.69h-3.46c-1.35,0-2.64-.57-3.87-1.71s-1.85-2.36-1.85-3.65v-6.24c0-1.29,.6-2.5,1.8-3.65s2.5-1.71,3.91-1.71h3.46c1.32-.02,2.61,.53,3.86,1.65s1.87,2.36,1.87,3.71Zm-11.92,.12v5.98c0,.54,.19,.97,.58,1.28l1.11,.95c.25,.21,.59,.32,1.04,.32h3.43c.5,0,.96-.18,1.37-.54l.9-.79c.36-.28,.54-.67,.54-1.18v-5.98c0-.59-.18-1.02-.54-1.3l-1.04-.83c-.35-.29-.76-.44-1.23-.44h-3.06c-.67,0-1.18,.16-1.55,.47l-1,.86c-.36,.3-.54,.7-.54,1.2Zm29.16,11.51h-2.95c-1.22,0-2.27-.43-3.15-1.3s-1.32-1.91-1.32-3.13v-9.58h-1.51c-.41,0-.76-.14-1.05-.42s-.43-.63-.43-1.05,.14-.76,.43-1.05,.64-.43,1.05-.43h1.55v-3.62c0-.41,.14-.76,.43-1.05s.64-.43,1.05-.43c.39,0,.73,.15,1.03,.44s.45,.64,.45,1.04v3.62h5.94c.4,0,.74,.15,1.04,.44s.44,.64,.44,1.04-.15,.76-.44,1.05-.64,.43-1.04,.43h-5.98v9.58c0,.4,.15,.74,.45,1.04s.65,.44,1.06,.44h2.88c.79,0,1.31-.42,1.56-1.27s.76-1.27,1.49-1.27c.43,0,.79,.14,1.06,.43s.41,.65,.41,1.08c0,.89-.42,1.78-1.26,2.66s-1.91,1.33-3.21,1.33Zm18.04-4.29h1.41c.41,0,.76,.15,1.06,.44s.45,.64,.45,1.04v1.3c0,.41-.14,.76-.43,1.05s-.64,.43-1.05,.43h-1.48c-.41,0-.76-.14-1.05-.43s-.43-.64-.43-1.05v-1.27c.01-.41,.16-.76,.46-1.06s.64-.45,1.05-.45Zm2.95-17.56l-.72,11.44c-.04,.42-.19,.77-.47,1.05s-.62,.42-1,.42c-.43,0-.79-.15-1.06-.44s-.42-.64-.45-1.04l-.72-11.48c-.02-.4,.11-.74,.41-1.04s.65-.44,1.06-.44h1.48c.41,0,.76,.16,1.06,.47s.44,.66,.41,1.05Z"/>
</svg>